<?xml version="1.0" encoding="UTF-8" standalone="no"?>
<!-- Created with Inkscape (http://www.inkscape.org/) -->

<svg
   width="52.691853mm"
   height="58.106846mm"
   viewBox="0 0 52.691853 58.106846"
   version="1.1"
   id="svg13023"
   inkscape:version="1.2.2 (b0a8486541, 2022-12-01)"
   sodipodi:docname="pardus-android-emulator.svg"
   xmlns:inkscape="http://www.inkscape.org/namespaces/inkscape"
   xmlns:sodipodi="http://sodipodi.sourceforge.net/DTD/sodipodi-0.dtd"
   xmlns="http://www.w3.org/2000/svg"
   xmlns:svg="http://www.w3.org/2000/svg"
   xmlns:rdf="http://www.w3.org/1999/02/22-rdf-syntax-ns#"
   xmlns:cc="http://creativecommons.org/ns#"
   xmlns:dc="http://purl.org/dc/elements/1.1/">
  <defs
     id="defs13017">
    <linearGradient
       id="linearGradient9647-5-0">
      <stop
         id="stop9649-2-25"
         offset="0"
         style="stop-color:#f8f8f8;stop-opacity:1;" />
      <stop
         id="stop9651-1-0"
         offset="1"
         style="stop-color:#f8f8f8;stop-opacity:0.62111801;" />
    </linearGradient>
    <linearGradient
       id="linearGradient9587-8-73">
      <stop
         id="stop9589-2-0"
         offset="0"
         style="stop-color:#a0c5f6;stop-opacity:1;" />
      <stop
         id="stop9591-0-7"
         offset="1"
         style="stop-color:#71a8f2;stop-opacity:0.61490685;" />
    </linearGradient>
  </defs>
  <sodipodi:namedview
     id="base"
     pagecolor="#ffffff"
     bordercolor="#666666"
     borderopacity="1.0"
     inkscape:pageopacity="0.0"
     inkscape:pageshadow="2"
     inkscape:zoom="2.8"
     inkscape:cx="75.357143"
     inkscape:cy="119.10714"
     inkscape:document-units="mm"
     inkscape:current-layer="layer1"
     showgrid="false"
     fit-margin-top="0"
     fit-margin-left="0"
     fit-margin-right="0"
     fit-margin-bottom="0"
     inkscape:window-width="1920"
     inkscape:window-height="1010"
     inkscape:window-x="0"
     inkscape:window-y="33"
     inkscape:window-maximized="1"
     inkscape:showpageshadow="0"
     inkscape:pagecheckerboard="1"
     inkscape:deskcolor="#d1d1d1" />
  <metadata
     id="metadata13020">
    <rdf:RDF>
      <cc:Work
         rdf:about="">
        <dc:format>image/svg+xml</dc:format>
        <dc:type
           rdf:resource="http://purl.org/dc/dcmitype/StillImage" />
        <dc:title />
      </cc:Work>
    </rdf:RDF>
  </metadata>
  <g
     inkscape:label="Layer 1"
     inkscape:groupmode="layer"
     id="layer1"
     transform="translate(-57.56479,-68.37515)">
    <rect
       rx="7.6149526"
       ry="7.6149526"
       y="98.250778"
       x="65.706375"
       height="23.287645"
       width="37.088642"
       id="rect9407-4-1"
       style="color:#000000;display:inline;overflow:visible;visibility:visible;fill:#ffcc00;fill-opacity:1;fill-rule:nonzero;stroke:#000000;stroke-width:0.95186907;stroke-miterlimit:4;stroke-dasharray:none;stroke-opacity:1;marker:none;enable-background:accumulate" />
    <path
       sodipodi:nodetypes="ssccss"
       inkscape:connector-curvature="0"
       id="path21266"
       d="m 82.969329,75.563317 c -13.740658,0 -24.897326,7.332571 -24.897326,16.36025 0,2.491089 0.862746,4.847603 2.379673,6.960543 16.854404,3.31673 31.369484,2.42271 45.035304,0 1.51592,-2.112369 2.34993,-4.470339 2.34993,-6.960543 0,-9.027679 -11.126922,-16.36025 -24.867581,-16.36025 z"
       style="color:#000000;display:inline;overflow:visible;visibility:visible;fill:#ffcc00;fill-opacity:1;fill-rule:nonzero;stroke:#000000;stroke-width:0.951869;stroke-linecap:butt;stroke-linejoin:round;stroke-miterlimit:4;stroke-dasharray:none;stroke-dashoffset:0;stroke-opacity:1;marker:none;enable-background:accumulate" />
    <rect
       transform="scale(-1,1)"
       rx="3.8074763"
       ry="3.8074763"
       y="105.47768"
       x="-109.78071"
       height="12.228501"
       width="6.7189574"
       id="rect9407-0-1-5-4"
       style="color:#000000;display:inline;overflow:visible;visibility:visible;fill:#ffcc00;fill-opacity:1;fill-rule:nonzero;stroke:#000000;stroke-width:0.95186907;stroke-miterlimit:4;stroke-dasharray:none;stroke-opacity:1;marker:none;enable-background:accumulate" />
    <rect
       transform="rotate(90)"
       rx="3.8074763"
       ry="3.8074763"
       y="-80.347656"
       x="121.57155"
       height="12.228501"
       width="4.4345121"
       id="rect9407-0-1-8-7-6"
       style="color:#000000;display:inline;overflow:visible;visibility:visible;fill:#ffcc00;fill-opacity:1;fill-rule:nonzero;stroke:#000000;stroke-width:0.95186907;stroke-miterlimit:4;stroke-dasharray:none;stroke-opacity:1;marker:none;enable-background:accumulate" />
    <rect
       transform="rotate(90)"
       rx="3.8074763"
       ry="3.8074763"
       y="-99.026344"
       x="121.56765"
       height="12.228501"
       width="4.4345121"
       id="rect9407-0-1-8-8-1-6"
       style="color:#000000;display:inline;overflow:visible;visibility:visible;fill:#ffcc00;fill-opacity:1;fill-rule:nonzero;stroke:#000000;stroke-width:0.95186907;stroke-miterlimit:4;stroke-dasharray:none;stroke-opacity:1;marker:none;enable-background:accumulate" />
    <rect
       transform="scale(-1,1)"
       rx="3.8074763"
       ry="3.8074763"
       y="105.34528"
       x="-64.759682"
       height="12.228501"
       width="6.7189574"
       id="rect9407-0-1-9-7-7"
       style="color:#000000;display:inline;overflow:visible;visibility:visible;fill:#ffcc00;fill-opacity:1;fill-rule:nonzero;stroke:#000000;stroke-width:0.95186907;stroke-miterlimit:4;stroke-dasharray:none;stroke-opacity:1;marker:none;enable-background:accumulate" />
    <g
       style="display:inline;fill:#d4aa00"
       id="g21901"
       transform="matrix(0.95186909,0,0,0.95186909,-648.03004,-596.52833)">
      <rect
         style="color:#000000;display:inline;overflow:visible;visibility:visible;fill:#d4aa00;fill-opacity:1;fill-rule:nonzero;stroke:none;stroke-width:4;marker:none;enable-background:accumulate"
         id="rect9407-0-1-5-4-0"
         width="3.1301272"
         height="12.846831"
         x="-343.1207"
         y="968.63153"
         ry="4"
         rx="3.9999998"
         transform="matrix(-0.8852384,0.46513758,0.46513758,0.8852384,0,0)" />
      <rect
         style="color:#000000;display:inline;overflow:visible;visibility:visible;fill:#d4aa00;fill-opacity:1;fill-rule:nonzero;stroke:none;stroke-width:4;marker:none;enable-background:accumulate"
         id="rect9407-0-1-5-4-0-1"
         width="3.1301272"
         height="12.846831"
         x="1016.6768"
         y="254.54622"
         ry="4"
         rx="3.9999998"
         transform="rotate(27.719126)" />
    </g>
    <path
       id="path266"
       style="fill:#d4aa00;stroke-width:0.304643"
       d="m 102.26124,109.60429 c -1.07859,2.07456 -1.01417,1.33548 -3.629625,0.86484 -2.615465,-0.47062 -4.487029,0.006 -4.479112,-2.26107 0.0079,-2.26721 -0.118626,-3.57565 2.500083,-4.03313 2.618707,-0.45749 4.557984,-0.48865 5.622064,1.59129 m -4.585519,2.37446"
       sodipodi:nodetypes="csssc" />
    <path
       id="path266-3"
       style="fill:#d4aa00;stroke-width:0.264583"
       d="m 73.035803,117.12055 c -0.8746,1.92981 -0.520395,0.73865 -1.993015,2.32636 -0.969741,1.04554 -1.914329,0.84288 -3.194636,-1.30336 -1.080467,-1.81124 -0.968951,-3.92071 1.15448,-4.34627 2.12343,-0.42557 3.695928,-0.45456 4.558758,1.48026"
       sodipodi:nodetypes="csssc" />
    <path
       id="path266-3-6"
       style="fill:#d4aa00;stroke-width:0.225258"
       d="m 83.867593,117.37425 c -0.734874,1.66474 -0.437257,0.6372 -1.674611,2.00683 -0.814816,0.90192 -1.608496,0.7271 -2.684261,-1.12434 -0.907852,-1.56246 -0.814152,-3.38218 0.97004,-3.74929 1.784191,-0.36711 3.105466,-0.39212 3.830451,1.27694"
       sodipodi:nodetypes="csssc" />
    <path
       id="path266-3-7"
       style="fill:#d4aa00;stroke-width:0.264583"
       d="m 96.075545,116.87233 c -0.8746,1.92981 -0.520395,0.73865 -1.993015,2.32636 -0.969741,1.04554 -1.914329,0.84288 -3.194636,-1.30336 -1.080467,-1.81124 -0.968951,-3.92071 1.15448,-4.34627 2.12343,-0.42557 3.695928,-0.45456 4.558758,1.48026"
       sodipodi:nodetypes="csssc" />
    <path
       id="path266-3-5"
       style="fill:#d4aa00;stroke-width:0.397619"
       d="m 83.309064,108.6439 c -1.352989,2.81735 -0.805041,1.07836 -3.083154,3.39627 -1.50017,1.5264 -2.961429,1.23053 -4.942038,-1.90278 -1.671461,-2.64425 -1.498948,-5.72388 1.785957,-6.34516 3.284904,-0.62129 5.717527,-0.66361 7.052308,2.16105"
       sodipodi:nodetypes="csssc" />
  </g>
</svg>
